<?xml version="1.0" encoding="utf-8"?>
<!-- Generator: Adobe Illustrator 25.1.0, SVG Export Plug-In . SVG Version: 6.00 Build 0)  -->
<svg version="1.1" xmlns="http://www.w3.org/2000/svg" xmlns:xlink="http://www.w3.org/1999/xlink" x="0px" y="0px"
	 viewBox="0 0 841.89 595.28" style="enable-background:new 0 0 841.89 595.28;" xml:space="preserve">
<style type="text/css">
	.st0{fill:#FFFFFF;}
	.st1{display:none;}
	.st2{display:inline;fill:#FFFFFF;}
	.st3{display:inline;}
</style>
<g id="nw_b_sur_n">
	<rect x="152.3" y="3.88" width="683.6" height="591.39"/>
	<g>
		<path class="st0" d="M696.82,382.28c-57.17,28.59-114.09,57.71-171.09,86.64c-2.72,1.38-5.55,2.52-9.23,4.18V74.12
			c8.04,3.88,15.68,7.01,22.76,11.09c27.86,16.05,22.82,5.75,22.92,37.89c0.27,86.86,0.08,173.72,0.1,260.59
			c0,3.64,0.31,7.28,0.53,12.19c7.87-3.2,14.6-5.42,20.77-8.73c2.13-1.14,3.81-4.88,4-7.56c0.66-9.2,0.73-18.45,0.73-27.68
			c0.05-76.57,0.02-153.13,0.06-229.7c0-3.56,0.45-7.13,0.78-11.93c14.76,7.37,28.41,14.01,41.83,21.1c1.7,0.9,3.01,4.19,3.02,6.37
			c0.1,69.43,0,138.87-0.02,208.31c0,4.14,0.41,8.28,0.74,14.38c8.42-4.33,16.04-7.28,22.35-11.98c2.5-1.87,2.87-7.64,2.88-11.64
			c0.17-52.8,0.11-105.61,0.11-158.41c0-9.98,0-19.96,0-31.7c10.1,4.95,16.97,8.78,27.76,13.33l19.17,9.14v21.58
			c-1.04,58.33-0.54,116.69-0.25,175.04l0.16,6.96c0.06,2.57-1.35,4.96-3.63,6.15L696.82,382.28z"/>
		<path class="st0" d="M492.92,72.29c0,134.91,0,268.22,0,402.64c-2.86-1.3-5.19-2.27-7.43-3.4c-23.77-11.99-47.48-24.1-71.33-35.92
			c-5.38-2.67-8.36-6.31-10.01-12.19c-17.24-61.26-34.75-122.45-52.2-183.65c-0.49-1.72-1.14-3.4-2.85-4.96
			c0,55.12,0,110.24,0,166.95c-5.17-2.33-9.15-3.98-13-5.9c-9.91-4.93-19.67-10.17-29.67-14.9c-4.63-2.19-6.67-5.04-6.66-10.32
			c0.14-64.69,0-129.37,0.35-194.06c0.02-3.29,3.01-8.01,5.94-9.59c19.48-10.5,39.43-20.13,59-30.47c6.75-3.57,9.01-1.34,10.78,5.2
			c18.87,69.55,37.93,139.06,56.95,208.57c3.31,12.1,6.64,24.19,11.89,36.26c0-2.88,0-5.77,0-8.65
			c-0.07-89.5-0.02-179.01-0.4-268.51c-0.04-9.51,2.85-15.07,11.7-18.88C468.22,85.24,479.95,78.76,492.92,72.29z"/>
	</g>
</g>
<g id="nw_n_sur_b" class="st1">
	<rect x="153.06" y="3.83" class="st2" width="682.84" height="590.73"/>
	<g class="st3">
		<path d="M696.97,381.81c-57.11,28.56-113.96,57.65-170.9,86.55c-2.71,1.38-5.55,2.52-9.22,4.18V74c8.03,3.88,15.66,7,22.74,11.07
			c27.83,16.03,22.8,5.74,22.9,37.84c0.27,86.76,0.08,173.53,0.1,260.29c0,3.63,0.31,7.27,0.53,12.17
			c7.86-3.19,14.59-5.42,20.75-8.72c2.13-1.14,3.81-4.88,4-7.55c0.66-9.19,0.73-18.43,0.73-27.65
			c0.05-76.48,0.02-152.96,0.06-229.44c0-3.56,0.45-7.12,0.78-11.91c14.74,7.36,28.38,13.99,41.78,21.08
			c1.69,0.9,3.01,4.18,3.01,6.36c0.1,69.36,0,138.71-0.02,208.07c0,4.14,0.41,8.27,0.74,14.36c8.41-4.33,16.02-7.27,22.33-11.97
			c2.5-1.86,2.86-7.63,2.88-11.62c0.17-52.74,0.11-105.49,0.11-158.23c0-9.97,0-19.94,0-31.67c10.08,4.94,16.95,8.77,27.73,13.32
			l19.15,9.13v21.56c-1.03,58.26-0.54,116.56-0.25,174.84l0.16,6.95c0.06,2.57-1.35,4.95-3.62,6.14L696.97,381.81z"/>
		<path d="M493.31,72.16c0,134.76,0,267.92,0,402.19c-2.86-1.3-5.19-2.26-7.42-3.39c-23.74-11.97-47.42-24.07-71.25-35.88
			c-5.38-2.67-8.35-6.3-10-12.17c-17.22-61.19-34.71-122.31-52.14-183.44c-0.49-1.72-1.14-3.39-2.85-4.96c0,55.06,0,110.12,0,166.77
			c-5.16-2.33-9.14-3.98-12.99-5.89c-9.9-4.93-19.65-10.16-29.64-14.89c-4.62-2.19-6.66-5.04-6.65-10.31
			c0.14-64.61,0-129.23,0.35-193.84c0.02-3.28,3-8,5.94-9.58c19.46-10.49,39.39-20.11,58.93-30.44c6.74-3.56,9-1.34,10.77,5.19
			c18.85,69.48,37.89,138.9,56.88,208.34c3.31,12.09,6.63,24.17,11.88,36.22c0-2.88,0-5.76,0-8.64
			c-0.07-89.4-0.02-178.81-0.4-268.21c-0.04-9.5,2.85-15.06,11.68-18.85C468.64,85.11,480.35,78.63,493.31,72.16z"/>
	</g>
</g>
<g id="nw_avec_nom" class="st1">
	<path class="st2" d="M0.9,479.37c0-159.77,0-319.55,0-479.37c280.28,0,560.58,0,840.99,0c0,159.76,0,319.57,0,479.37
		C561.58,479.37,281.24,479.37,0.9,479.37z M286.55,331.27c0.59-0.06,1,0,1.3-0.16c25.93-13.09,51.87-26.16,77.72-39.39
		c1.13-0.58,2.18-2.57,2.19-3.9c0.13-27.3,0.11-54.59,0.04-81.89c0-1.13-0.49-2.84-1.29-3.28c-6.15-3.33-12.44-6.4-19.27-9.85
		c0,3.12,0,5.37,0,7.63c0.01,24.52,0.06,49.04-0.07,73.55c-0.01,1.73-0.83,4.03-2.09,5.06c-2.07,1.69-4.82,2.56-7.95,4.11
		c0-2.12,0-3.69,0-5.27c0-28.69,0.01-57.38-0.07-86.06c0-1.61-0.32-4.11-1.35-4.69c-6-3.41-12.25-6.36-19-9.76c0,2.03,0,3.39,0,4.74
		c0,21.86,0,43.73,0,65.59c0,14.15,0.03,28.31-0.07,42.46c-0.01,1.35-0.38,3.3-1.3,3.94c-2.44,1.69-5.26,2.82-8.51,4.46
		c-0.13-2.05-0.29-3.51-0.29-4.97c-0.01-25.66,0-51.31,0.02-76.97c0.01-13.52,0.07-27.05-0.05-40.57c-0.01-1.57-0.55-3.94-1.63-4.55
		c-5.88-3.33-12.01-6.23-18.34-9.42C286.55,218.82,286.55,275,286.55,331.27z M276.78,162.11c-5.08,2.54-9.54,5.18-14.31,7.05
		c-4.78,1.87-6.09,4.88-6.06,9.85c0.23,37.28,0.18,74.56,0.22,111.85c0,1.21,0,2.42,0,3.63c-0.29-0.01-0.59-0.02-0.88-0.03
		c-9.75-35.49-19.5-70.97-29.38-106.94c-10.17,5.16-19.75,9.94-29.22,14.93c-0.93,0.49-1.68,2.23-1.69,3.39
		c-0.09,27.42-0.09,54.85-0.02,82.27c0,1.1,0.54,2.77,1.36,3.21c6.16,3.34,12.44,6.44,19.25,9.89c0-24.19,0-47.57,0-70.95
		c0.72,0.62,1.04,1.29,1.24,1.99c7.37,25.8,14.67,51.62,22.17,77.38c0.59,2.03,2.23,4.37,4.04,5.34
		c10.01,5.38,20.23,10.39,30.38,15.5c0.83,0.42,1.75,0.64,2.88,1.05C276.78,274.98,276.78,218.89,276.78,162.11z M481.83,252.56
		c-3.6,0-6.52,0.21-9.4-0.06c-3.09-0.28-4.67,0.74-5.81,3.75c-3.32,8.71-7.02,17.28-10.6,25.89c-0.38,0.91-0.92,1.74-1.81,3.4
		c-2.16-11.63-4.13-22.24-6.08-32.73c-10.55-0.93-10.55-0.93-14.66,7.92c-0.8,1.72-1.58,3.44-2.36,5.16
		c-2.91,6.36-5.83,12.72-8.75,19.09c-0.25-0.04-0.49-0.08-0.74-0.12c-1.32-10.7-2.64-21.4-3.96-32.1c-4.38,0-8.37,0-12.53,0
		c2.49,16.93,4.94,33.63,7.43,50.61c2.37,0,4.55-0.29,6.63,0.06c4.96,0.82,7.31-1.33,9.12-5.87c3.08-7.71,6.96-15.1,10.52-22.61
		c0.39-0.82,0.93-1.56,1.7-2.84c2.08,10.82,4.02,20.94,6,31.27c3.42,0,6.59,0.23,9.7-0.11c1.26-0.14,2.93-1.25,3.47-2.37
		c3.73-7.72,7.21-15.55,10.77-23.36C474.18,269.42,477.86,261.29,481.83,252.56z M413.17,242.49c1.63-10.39,3.23-20.61,4.99-31.84
		c5.24,10.45,9.94,19.92,14.76,29.33c0.55,1.07,1.7,2.5,2.66,2.58c3.75,0.3,7.53,0.12,11.61,0.12c2.7-17.02,5.35-33.76,8.03-50.68
		c-4.26,0-8.16,0-12.38,0c-1.62,10.29-3.24,20.52-5,31.72c-1.12-2.08-1.75-3.16-2.31-4.27c-4.18-8.35-8.32-16.72-12.57-25.03
		c-0.51-0.99-1.54-2.36-2.41-2.42c-3.86-0.26-7.74-0.11-11.77-0.11c-2.7,17.1-5.34,33.78-7.99,50.6
		C405.03,242.49,409.03,242.49,413.17,242.49z M488.05,191.12c-15.32,0.03-28.81,12.16-30.43,27.37
		c-1.46,13.71,8.46,24.86,22.2,24.96c15.24,0.11,27.25-9.99,30.3-25.45C512.98,203.5,502.8,191.09,488.05,191.12z M636.42,263.33
		c8.2,0,16.24,0,24.45,0c0.63-3.71,1.19-7.03,1.79-10.56c-12.4,0-24.61,0-36.98,0c-2.67,16.85-5.31,33.52-7.99,50.42
		c12.4,0,24.51,0,36.95,0c0.54-3.46,1.07-6.84,1.65-10.61c-8.37,0-16.18,0-24.42,0c0.51-3.4,0.97-6.43,1.47-9.7
		c8.13,0,15.94,0,23.94,0c0.57-3.58,1.09-6.9,1.69-10.62c-8.1,0-15.91,0-23.96,0C635.5,269.14,635.93,266.43,636.42,263.33z
		 M524.4,303.38c-3.52-14.15-6.89-27.72-10.26-41.29c-2.39-9.63-2.39-9.54-12.24-9.58c-2.38-0.01-3.54,0.85-4.64,2.86
		c-5.44,9.96-11.05,19.83-16.59,29.74c-3.31,5.91-6.6,11.83-10.19,18.27c3.13,0,5.66-0.29,8.09,0.06c4.39,0.64,7.15-0.83,8.66-5.07
		c0.37-1.05,1.79-2.43,2.76-2.46c6.55-0.22,13.11-0.11,19.57-0.11c2.1,7.58,2.1,7.58,9.91,7.58
		C520.98,303.38,522.49,303.38,524.4,303.38z M569.39,264.39c-0.61-5.68-3.36-9.37-8.16-11.34c-7.91-3.25-18.97-1.01-25.07,5.07
		c-8.05,8.03-5.89,19.02,4.66,23.14c3.16,1.24,6.63,1.72,9.71,3.1c1.68,0.75,2.83,2.65,4.23,4.04c-1.58,1.44-2.93,3.62-4.78,4.19
		c-4.53,1.38-8.48,0.11-10.65-4.76c-4.07,1.11-7.92,2.15-11.73,3.19c0.77,4.68,2.62,7.62,6.04,9.88c8.38,5.55,22.99,3.72,29.76-3.72
		c7.7-8.46,5.24-18.66-5.51-22.57c-3.31-1.21-6.85-1.86-10.07-3.26c-1.49-0.65-3.55-2.62-3.4-3.74c0.21-1.61,1.91-3.53,3.49-4.34
		c4.1-2.13,7.01-0.89,10.86,4.03C562.2,266.36,565.71,265.4,569.39,264.39z M618.39,263.31c0.6-3.72,1.14-7.05,1.71-10.58
		c-14.99,0-29.76,0-44.77,0c-0.55,3.42-1.09,6.75-1.72,10.65c5.53,0,10.75,0,16.26,0c-2.17,13.6-4.24,26.62-6.35,39.84
		c4.27,0,8.16,0,12.18,0c0.29-1.33,0.61-2.55,0.8-3.78c1.78-11.09,3.62-22.17,5.23-33.28c0.33-2.28,1.11-2.98,3.32-2.91
		C609.36,263.41,613.66,263.31,618.39,263.31z"/>
	<path class="st3" d="M286.55,331.27c0-56.27,0-112.45,0-169.19c6.33,3.19,12.46,6.09,18.34,9.42c1.08,0.61,1.62,2.99,1.63,4.55
		c0.12,13.52,0.05,27.04,0.05,40.57c-0.01,25.66-0.02,51.31-0.02,76.97c0,1.46,0.17,2.92,0.29,4.97c3.25-1.64,6.08-2.76,8.51-4.46
		c0.92-0.64,1.29-2.59,1.3-3.94c0.09-14.15,0.06-28.31,0.07-42.46c0-21.86,0-43.73,0-65.59c0-1.36,0-2.71,0-4.74
		c6.74,3.4,13,6.36,19,9.76c1.03,0.58,1.34,3.08,1.35,4.69c0.08,28.69,0.07,57.38,0.07,86.06c0,1.58,0,3.15,0,5.27
		c3.13-1.54,5.87-2.41,7.95-4.11c1.26-1.03,2.08-3.33,2.09-5.06c0.12-24.52,0.07-49.04,0.07-73.55c0-2.25,0-4.51,0-7.63
		c6.83,3.45,13.12,6.52,19.27,9.85c0.81,0.44,1.29,2.15,1.29,3.28c0.07,27.3,0.09,54.6-0.04,81.89c-0.01,1.34-1.06,3.32-2.19,3.9
		c-25.86,13.23-51.79,26.3-77.72,39.39C287.55,331.27,287.14,331.2,286.55,331.27z"/>
	<path class="st3" d="M276.78,162.11c0,56.78,0,112.87,0,169.4c-1.14-0.41-2.06-0.63-2.88-1.05c-10.16-5.11-20.37-10.12-30.38-15.5
		c-1.81-0.97-3.45-3.31-4.04-5.34c-7.51-25.76-14.81-51.58-22.17-77.38c-0.2-0.7-0.52-1.36-1.24-1.99c0,23.38,0,46.77,0,70.95
		c-6.8-3.46-13.09-6.56-19.25-9.89c-0.81-0.44-1.35-2.11-1.36-3.21c-0.07-27.42-0.08-54.85,0.02-82.27c0-1.16,0.76-2.91,1.69-3.39
		c9.47-4.99,19.04-9.77,29.22-14.93c9.88,35.97,19.63,71.45,29.38,106.94c0.29,0.01,0.59,0.02,0.88,0.03c0-1.21,0-2.42,0-3.63
		c-0.04-37.28,0.01-74.56-0.22-111.85c-0.03-4.96,1.27-7.97,6.06-9.85C267.24,167.29,271.71,164.65,276.78,162.11z"/>
	<path class="st3" d="M481.83,252.56c-3.96,8.73-7.65,16.85-11.35,24.98c-3.55,7.8-7.04,15.64-10.77,23.36
		c-0.54,1.12-2.22,2.23-3.47,2.37c-3.11,0.34-6.28,0.11-9.7,0.11c-1.98-10.33-3.93-20.45-6-31.27c-0.77,1.28-1.31,2.03-1.7,2.84
		c-3.56,7.51-7.44,14.91-10.52,22.61c-1.82,4.54-4.16,6.69-9.12,5.87c-2.08-0.35-4.26-0.06-6.63-0.06
		c-2.49-16.98-4.94-33.68-7.43-50.61c4.16,0,8.15,0,12.53,0c1.32,10.7,2.64,21.4,3.96,32.1c0.25,0.04,0.49,0.08,0.74,0.12
		c2.92-6.36,5.83-12.72,8.75-19.09c0.79-1.72,1.57-3.45,2.36-5.16c4.11-8.86,4.11-8.86,14.66-7.92c1.95,10.49,3.92,21.09,6.08,32.73
		c0.89-1.65,1.43-2.49,1.81-3.4c3.58-8.61,7.27-17.18,10.6-25.89c1.15-3.01,2.73-4.03,5.81-3.75
		C475.31,252.77,478.23,252.56,481.83,252.56z"/>
	<path class="st3" d="M413.17,242.49c-4.14,0-8.14,0-12.38,0c2.66-16.82,5.29-33.5,7.99-50.6c4.03,0,7.91-0.15,11.77,0.11
		c0.87,0.06,1.9,1.42,2.41,2.42c4.25,8.31,8.39,16.68,12.57,25.03c0.56,1.11,1.18,2.2,2.31,4.27c1.77-11.2,3.38-21.43,5-31.72
		c4.23,0,8.12,0,12.38,0c-2.68,16.92-5.33,33.66-8.03,50.68c-4.07,0-7.86,0.18-11.61-0.12c-0.96-0.08-2.11-1.51-2.66-2.58
		c-4.82-9.41-9.53-18.89-14.76-29.33C416.41,221.88,414.8,232.1,413.17,242.49z"/>
	<path class="st3" d="M488.05,191.12c14.75-0.03,24.93,12.38,22.07,26.88c-3.05,15.46-15.07,25.56-30.3,25.45
		c-13.74-0.09-23.66-11.25-22.2-24.96C459.24,203.28,472.73,191.14,488.05,191.12z M497.9,215.22c0.05-7.22-4.58-11.98-11.64-11.98
		c-8.66,0.01-16.28,7.85-16.2,16.68c0.06,6.54,4.92,11.31,11.61,11.39C490.3,231.42,497.84,223.94,497.9,215.22z"/>
	<path class="st3" d="M636.42,263.33c-0.49,3.1-0.92,5.81-1.41,8.92c8.06,0,15.86,0,23.96,0c-0.59,3.72-1.12,7.04-1.69,10.62
		c-8,0-15.82,0-23.94,0c-0.49,3.27-0.95,6.3-1.47,9.7c8.24,0,16.05,0,24.42,0c-0.59,3.77-1.11,7.15-1.65,10.61
		c-12.44,0-24.55,0-36.95,0c2.68-16.9,5.32-33.57,7.99-50.42c12.37,0,24.58,0,36.98,0c-0.6,3.53-1.16,6.85-1.79,10.56
		C652.66,263.33,644.61,263.33,636.42,263.33z"/>
	<path class="st3" d="M524.4,303.38c-1.91,0-3.42,0-4.93,0c-7.81,0-7.81,0-9.91-7.58c-6.45,0-13.01-0.1-19.57,0.11
		c-0.97,0.03-2.39,1.41-2.76,2.46c-1.51,4.24-4.27,5.71-8.66,5.07c-2.44-0.36-4.97-0.06-8.09-0.06c3.59-6.45,6.88-12.36,10.19-18.27
		c5.54-9.91,11.16-19.78,16.59-29.74c1.1-2.02,2.27-2.87,4.64-2.86c9.84,0.04,9.84-0.05,12.24,9.58
		C517.51,275.66,520.88,289.23,524.4,303.38z M503.52,266.48c-3.35,6.54-6.16,12.05-9.11,17.82c4.64,0,8.63,0,12.93,0
		C506.1,278.52,504.93,273.02,503.52,266.48z"/>
	<path class="st3" d="M569.39,264.39c-3.69,1.01-7.2,1.97-10.62,2.91c-3.85-4.92-6.76-6.16-10.86-4.03
		c-1.57,0.82-3.28,2.74-3.49,4.34c-0.15,1.12,1.91,3.09,3.4,3.74c3.22,1.4,6.75,2.05,10.07,3.26c10.75,3.91,13.21,14.11,5.51,22.57
		c-6.78,7.45-21.38,9.27-29.76,3.72c-3.42-2.27-5.26-5.2-6.04-9.88c3.81-1.04,7.65-2.08,11.73-3.19c2.17,4.88,6.12,6.15,10.65,4.76
		c1.85-0.57,3.2-2.74,4.78-4.19c-1.39-1.38-2.55-3.29-4.23-4.04c-3.08-1.38-6.55-1.87-9.71-3.1c-10.55-4.13-12.72-15.11-4.66-23.14
		c6.1-6.08,17.16-8.31,25.07-5.07C566.04,255.02,568.78,258.71,569.39,264.39z"/>
	<path class="st3" d="M618.39,263.31c-4.72,0-9.02,0.1-13.31-0.04c-2.22-0.07-2.99,0.63-3.32,2.91
		c-1.61,11.11-3.45,22.19-5.23,33.28c-0.2,1.23-0.52,2.44-0.8,3.78c-4.02,0-7.91,0-12.18,0c2.11-13.23,4.18-26.25,6.35-39.84
		c-5.51,0-10.73,0-16.26,0c0.63-3.9,1.17-7.23,1.72-10.65c15.01,0,29.78,0,44.77,0C619.53,256.26,618.99,259.59,618.39,263.31z"/>
	<path class="st2" d="M497.9,215.22c-0.06,8.72-7.6,16.2-16.23,16.1c-6.68-0.08-11.55-4.85-11.61-11.39
		c-0.08-8.83,7.54-16.67,16.2-16.68C493.32,203.24,497.95,208.01,497.9,215.22z"/>
	<path class="st2" d="M503.52,266.48c1.4,6.54,2.58,12.04,3.82,17.82c-4.3,0-8.29,0-12.93,0
		C497.36,278.53,500.18,273.02,503.52,266.48z"/>
</g>
</svg>
